Color
C

Release Date
August 13, 1999

Language
Hindi

Genre
Action  /  Crime  /  Thriller  /  Drama

Producer
Mehul Kumar

Director
Mehul Kumar

Star Cast
Amitabh Bachchan...... Col. Balbir Singh Sodi, aka Devraj Hathoda/Dada Bhai
Nana Patekar...... Maj. Ajit Arya
Tabu...... Insp. Kiran Patekar
Danny Denzongpa...... Minister Virbhadra Singh
Jaya Prada...... Amrita Sodi
Mukul Dev...... Monty
Mukesh Rishi...... Ghafoor Changezi
Jackie Shroff...... Maj. Rathod
Ayesha Jhulka...... Sweety
Kabir Bedi...... Brig. Bedi
Avtar Gill...... Police Commissioner

Cassettes and CD's on
Polygram

Sound
Jagmohan Anand

Media Relations
Picture-N-Kraft


General
Complete name :Kohram 1999 DvDrip ~ Action | Drama | Thriller ~ [RdY]
Format : AVI
Format/Info : Audio Video Interleave
File size : 750 MiB
Duration : 2h 24mn
Overall bit rate : 724 Kbps

Video
ID : 0
Format : MPEG-4 Visual
Format profile : Advanced Simple@L5
Format settings, BVOP : 2
Format settings, QPel : No
Format settings, GMC : No warppoints
Format settings, Matrix : Default (H.263)
Codec ID : XVID
Codec ID/Hint : XviD
Duration : 2h 24mn
Bit rate : 600 Kbps
Width : 640 pixels
Height : 342 pixels
Display aspect ratio : 1.871
Frame rate : 24.000 fps
Color space : YUV
Chroma subsampling : 4.2.0
Bit depth : 8 bits
Scan type : Progressive
Compression mode : Lossy
Bits/(Pixel*Frame) : 0.114
Stream size : 622 MiB (83%)
Writing library : XviD 63

Audio
ID : 1
Format : MPEG Audio
Format version : Version 1
Format profile : Layer 3
Codec ID : 55
Codec ID/Hint : MP3
Duration : 2h 24mn
Bit rate mode : Constant
Bit rate : 112 Kbps
Channel(s) : 2 channels
Sampling rate : 44.1 KHz
Compression mode : Lossy
Stream size : 116 MiB (15%)
Alignment : Split accross interleaves
Interleave, duration : 26 ms (0.63 video frame)